<?xml version="1.0" standalone="no"?>
<!DOCTYPE svg PUBLIC "-//W3C//DTD SVG 20010904//EN"
 "http://www.w3.org/TR/2001/REC-SVG-20010904/DTD/svg10.dtd">
<svg version="1.0" xmlns="http://www.w3.org/2000/svg"
 width="512.000000pt" height="512.000000pt" viewBox="0 0 512.000000 512.000000"
 preserveAspectRatio="xMidYMid meet">
<metadata>
Created by potrace 1.11, written by Peter Selinger 2001-2013
</metadata>
<g transform="translate(0.000000,512.000000) scale(0.100000,-0.100000)"
fill="#000000" stroke="none">
<path d="M2300 5109 c-106 -12 -252 -37 -365 -63 -108 -25 -296 -92 -430 -152
-435 -196 -818 -522 -1082 -922 -63 -95 -62 -92 -122 -204 -99 -183 -192 -430
-236 -628 -51 -228 -64 -359 -60 -620 3 -204 8 -262 40 -450 13 -75 76 -303
111 -397 84 -229 246 -517 398 -706 312 -389 728 -681 1194 -836 67 -22 132
-43 145 -46 107 -24 252 -54 290 -59 26 -3 68 -9 95 -13 82 -13 520 -9 612 5
236 37 424 86 608 158 832 328 1433 1066 1586 1950 26 145 31 227 31 454 0
209 -11 332 -41 470 -7 36 -15 77 -18 91 -9 53 -78 273 -116 369 -290 727
-900 1284 -1648 1504 -164 49 -292 74 -482 95 -89 10 -418 10 -510 0z m516
-262 c12 -3 45 -8 75 -12 141 -17 336 -69 495 -130 879 -340 1463 -1185 1467
-2120 0 -119 -10 -312 -18 -325 -2 -3 -6 -30 -10 -60 -10 -84 -72 -323 -112
-429 -277 -744 -917 -1294 -1693 -1455 -157 -32 -241 -40 -450 -40 -186 -1
-271 5 -405 28 -455 80 -904 313 -1227 639 -388 392 -619 890 -665 1432 -14
162 -7 369 17 520 5 33 12 78 15 100 4 22 8 48 11 57 3 9 6 25 8 35 7 35 28
109 56 193 93 286 245 555 447 792 105 123 314 306 463 405 64 43 236 143 245
143 2 0 41 17 87 39 207 96 469 167 693 187 39 4 72 8 74 10 5 5 404 -4 427
-9z"/>
<path d="M2448 4655 c-2 -1 -43 -6 -93 -9 -339 -26 -722 -169 -1015 -380 -131
-94 -239 -192 -385 -350 -6 -6 -39 -48 -74 -94 -275 -364 -421 -790 -424
-1247 -2 -210 9 -310 53 -505 118 -515 436 -973 885 -1275 184 -123 484 -254
680 -296 33 -7 62 -13 65 -14 3 -1 28 -5 55 -10 28 -4 58 -9 67 -11 139 -24
418 -24 601 1 117 16 320 68 437 112 68 26 256 116 325 155 229 132 452 335
643 583 91 118 232 393 287 556 34 103 77 280 89 364 21 152 26 399 12 540
-40 380 -210 791 -453 1095 -122 152 -330 338 -503 452 -227 148 -555 274
-807 309 -39 5 -82 12 -95 15 -25 5 -345 14 -350 9z m336 -445 c233 -80 371
-282 362 -525 -6 -148 -54 -256 -162 -362 -166 -163 -421 -194 -629 -78 -244
137 -336 437 -212 695 41 86 149 194 237 238 123 61 284 74 404 32z m-1210
-781 c311 -92 464 -444 322 -741 -135 -282 -497 -381 -762 -210 -229 149 -308
440 -186 692 39 79 150 188 236 229 122 59 255 69 390 30z m2321 -120 c280
-105 420 -417 308 -691 -100 -248 -369 -386 -623 -320 -186 48 -336 195 -384
379 -18 67 -18 199 0 265 37 142 149 284 269 343 131 63 300 73 430 24z
m-1220 -504 c223 -102 221 -410 -3 -513 -228 -104 -475 143 -369 370 42 90
118 150 210 167 57 10 103 4 162 -24z m-769 -710 c82 -23 135 -51 198 -102
241 -195 258 -562 37 -782 -210 -209 -541 -210 -749 -1 -237 237 -197 633 84
818 122 82 288 107 430 67z m1524 -89 c378 -131 479 -614 184 -886 -84 -78
-173 -120 -289 -138 -320 -50 -616 221 -598 548 8 146 61 263 165 362 143 136
350 180 538 114z"/>
</g>
</svg>
